<svg id="Capa_1" enable-background="new 0 0 512 512" height="512" viewBox="0 0 512 512" width="512" xmlns="http://www.w3.org/2000/svg"><g><g><path d="m0 391v45c0 8.284 6.716 15 15 15h482c8.284 0 15-6.716 15-15v-45c0-8.284-6.716-15-15-15h-482c-8.284 0-15 6.716-15 15z" fill="#ffe67a"/><g><path d="m497 376h-241v75h241c8.284 0 15-6.716 15-15v-45c0-8.284-6.716-15-15-15z" fill="#ffc336"/></g><g><path d="m15 1h181c24.507 0 46.306 11.814 60 30.047 13.694-18.233 35.493-30.047 60-30.047h181c8.284 0 15 6.716 15 15v375h-196c-24.813 0-45 20.187-45 45 0 8.284-6.716 14.993-15 14.994-8.284-.001-15-6.71-15-14.994 0-24.813-20.187-45-45-45h-196v-375c0-8.284 6.716-15 15-15z" fill="#f2faff"/><g><path d="m497 1h-181c-24.507 0-46.306 11.814-60 30.047v419.947c8.284-.001 15-6.71 15-14.994 0-24.813 20.187-45 45-45h196v-375c0-8.284-6.716-15-15-15z" fill="#c8eafa"/></g></g><g fill="#5e54ac"><path d="m188.5 91h-121c-8.284 0-15-6.716-15-15s6.716-15 15-15h121c8.284 0 15 6.716 15 15s-6.716 15-15 15z"/><path d="m188.5 151h-121c-8.284 0-15-6.716-15-15s6.716-15 15-15h121c8.284 0 15 6.716 15 15s-6.716 15-15 15z"/><path d="m188.5 211h-121c-8.284 0-15-6.716-15-15s6.716-15 15-15h121c8.284 0 15 6.716 15 15s-6.716 15-15 15z"/><path d="m188.5 271h-121c-8.284 0-15-6.716-15-15s6.716-15 15-15h121c8.284 0 15 6.716 15 15s-6.716 15-15 15z"/><path d="m188.5 331h-121c-8.284 0-15-6.716-15-15s6.716-15 15-15h121c8.284 0 15 6.716 15 15s-6.716 15-15 15z"/></g><g><path d="m444.5 91h-121c-8.284 0-15-6.716-15-15s6.716-15 15-15h121c8.284 0 15 6.716 15 15s-6.716 15-15 15z" fill="#453d81"/></g></g><g><path d="m461.772 509.183c-15.569 5.667-32.785-2.361-38.451-17.93l-68.624-188.544c-2.833-7.785 1.18-16.392 8.965-19.226l28.191-10.261c7.785-2.833 16.392 1.18 19.226 8.965l68.624 188.544c5.666 15.57-2.362 32.785-17.931 38.452z" fill="#bc8173"/><g><path d="m391.852 273.222-14.095 5.13 84.015 230.83c15.569-5.667 23.597-22.882 17.93-38.451l-68.624-188.544c-2.834-7.785-11.441-11.799-19.226-8.965z" fill="#9d5e4a"/></g><path d="m403.628 349.435c-56.996 20.745-120.243-8.748-140.988-65.744s8.748-120.244 65.744-140.989c56.995-20.745 120.242 8.748 140.987 65.744s-8.746 120.244-65.743 140.989z" fill="#5e54ac"/><g><g><path d="m469.372 208.447c-20.745-56.996-83.992-86.489-140.987-65.744 0 0 0 0-.001 0l75.244 206.732c56.997-20.745 86.489-83.992 65.744-140.988z" fill="#453d81"/></g></g><ellipse cx="366.007" cy="246.069" fill="#a4e9ff" rx="80" ry="79.999" transform="matrix(.044 -.999 .999 .044 104.207 600.993)"/><g><path d="m441.181 218.707c-15.087-41.452-61.085-62.901-102.536-47.814 0 0 0 0-.001 0l54.723 150.351c41.453-15.087 62.902-61.085 47.814-102.537z" fill="#91bbff"/></g></g></g></svg>